<svg xmlns="http://www.w3.org/2000/svg" viewBox="80 360 1100 480" role="img" aria-labelledby="title">
  <title id="title">HCAI</title>
  <g fill="#f64239">
    <path d="M111 499 169 465 169 566 242 566 242 424 292 395 453 493 453 558 305 473 305 724 453 635 453 699 290 801 242 771 242 630 169 630 169 732 111 698Z"/>
    <path d="M529 514 568 514 568 581 645 581 645 514 683 514 683 689 645 689 645 617 568 617 568 689 529 689Z"/>
    <path d="M811 510C842 510 869 518 877 526L858 561C846 554 831 549 811 549 775 549 752 570 752 602 752 631 776 654 811 654 831 654 844 650 857 643L877 677C863 687 840 693 811 693 750 693 712 656 712 602 712 546 752 510 811 510Z"/>
    <path d="M969 514 1009 514 1083 689 1041 689 988 562 935 689 895 689Z"/>
    <path d="M1110 514 1149 514 1149 689 1110 689Z"/>
  </g>
</svg>
